<?xml version="1.0" encoding="UTF-8"?>
<svg width="75px" height="66px" viewBox="0 0 75 66" version="1.1" xmlns="http://www.w3.org/2000/svg" xmlns:xlink="http://www.w3.org/1999/xlink">
    <!-- Generator: Sketch 49 (51002) - http://www.bohemiancoding.com/sketch -->
    <title>goat-marketing-channel-management-icon</title>
    <desc>Created with Sketch.</desc>
    <defs></defs>
    <g id="Icons" stroke="none" stroke-width="1" fill="none" fill-rule="evenodd">
        <g id="Services" transform="translate(-689.000000, -634.000000)" fill="#FFFFFF" fill-rule="nonzero">
            <g id="goat-marketing-channel-management-icon" transform="translate(689.000000, 634.000000)">
                <path d="M70.1041667,0.9375 L4.89583333,0.9375 C2.5,0.9375 0.520833333,2.91666667 0.520833333,5.3125 L0.520833333,46.25 C0.520833333,48.6458333 2.5,50.625 4.89583333,50.625 L30.625,50.625 C31.0416667,50.625 31.3541667,50.9375 31.3541667,51.3541667 L31.3541667,55.9375 C31.3541667,56.3541667 31.0416667,56.6666667 30.7291667,56.6666667 C23.125,57.3958333 17.7083333,59.0625 17.7083333,61.0416667 C17.7083333,63.5416667 26.5625,65.625 37.5,65.625 C48.4375,65.625 57.2916667,63.5416667 57.2916667,61.0416667 C57.2916667,59.0625 51.875,57.3958333 44.2708333,56.6666667 C43.8541667,56.6666667 43.6458333,56.3541667 43.6458333,55.9375 L43.6458333,51.3541667 C43.6458333,50.9375 43.9583333,50.625 44.375,50.625 L70.1041667,50.625 C72.5,50.625 74.4791667,48.6458333 74.4791667,46.25 L74.4791667,5.41666667 C74.4791667,2.91666667 72.5,0.9375 70.1041667,0.9375 Z M69.2708333,43.6458333 C69.2708333,44.6875 68.4375,45.5208333 67.3958333,45.5208333 L7.60416667,45.5208333 C6.5625,45.5208333 5.72916667,44.6875 5.72916667,43.6458333 L5.72916667,8.02083333 C5.72916667,6.97916667 6.5625,6.14583333 7.60416667,6.14583333 L67.5,6.14583333 C68.5416667,6.14583333 69.375,6.97916667 69.375,8.02083333 L69.375,43.6458333 L69.2708333,43.6458333 Z" id="Shape"></path>
                <path d="M60.7291667,11.5625 C59.8958333,11.5625 59.0625,11.9791667 58.5416667,12.7083333 C57.6041667,13.75 57.6041667,14.5833333 57.8125,15.3125 C57.8125,15.4166667 57.8125,15.5208333 57.7083333,15.625 L42.9166667,30.2083333 C42.8125,30.2083333 42.7083333,30.3125 42.5,30.2083333 C42.1875,30.1041667 41.9791667,30.1041667 41.6666667,30.1041667 C41.25,30.1041667 40.8333333,30.2083333 40.4166667,30.4166667 C40.3125,30.5208333 40.1041667,30.4166667 40,30.3125 L32.1875,22.8125 C32.0833333,22.7083333 32.0833333,22.6041667 31.9791667,22.5 C31.875,21.0416667 30.7291667,19.8958333 29.2708333,19.7916667 C28.75,19.7916667 28.2291667,19.8958333 27.8125,20.2083333 C26.0416667,21.4583333 25.8333333,22.2916667 25.9375,23.125 C25.9375,23.3333333 25.9375,23.4375 25.8333333,23.6458333 L15.2083333,34.6875 C15.1041667,34.7916667 14.8958333,34.8958333 14.6875,34.8958333 C13.9583333,34.7916667 13.125,34.8958333 12.0833333,35.9375 C11.5625,36.4583333 11.25,37.1875 11.25,37.8125 C11.25,39.6875 12.9166667,41.1458333 14.8958333,40.8333333 C15.7291667,40.7291667 16.5625,40.1041667 16.9791667,39.2708333 C17.5,38.4375 17.5,37.7083333 17.2916667,36.9791667 C17.2916667,36.875 17.2916667,36.6666667 17.3958333,36.5625 L27.8125,25.625 C27.9166667,25.5208333 28.0208333,25.5208333 28.125,25.5208333 C28.4375,25.625 28.75,25.7291667 29.1666667,25.7291667 C29.6875,25.7291667 30.2083333,25.625 30.625,25.3125 C30.7291667,25.2083333 30.8333333,25.3125 30.9375,25.3125 L38.6458333,32.7083333 C38.75,32.8125 38.75,32.9166667 38.75,33.0208333 C38.75,33.3333333 38.8541667,34.1666667 39.0625,34.4791667 C39.5833333,35.4166667 40.5208333,36.0416667 41.5625,36.1458333 C42.6041667,36.25 43.5416667,35.625 44.1666667,34.8958333 C44.7916667,34.0625 44.8958333,33.3333333 44.7916667,32.7083333 C44.7916667,32.6041667 44.7916667,32.3958333 44.8958333,32.3958333 L59.7916667,17.7083333 C59.8958333,17.6041667 60,17.6041667 60.1041667,17.6041667 C60.8333333,17.8125 61.5625,17.7083333 62.5,17.0833333 C63.3333333,16.4583333 63.9583333,15.5208333 63.8541667,14.375 C63.6458333,12.8125 62.3958333,11.5625 60.7291667,11.5625 Z" id="Shape"></path>
            </g>
        </g>
    </g>
</svg>