<?xml version="1.0" encoding="UTF-8"?>
<svg width="148px" height="126px" viewBox="0 0 148 126" version="1.1" xmlns="http://www.w3.org/2000/svg" xmlns:xlink="http://www.w3.org/1999/xlink">
    <!-- Generator: Sketch 48.2 (47327) - http://www.bohemiancoding.com/sketch -->
    <title>goat-marketing-eyeballs</title>
    <desc>Created with Sketch.</desc>
    <defs></defs>
    <g id="Desktop-HD" stroke="none" stroke-width="1" fill="none" fill-rule="evenodd" transform="translate(-252.000000, -288.000000)">
        <g id="goat-marketing-eyeballs" transform="translate(252.000000, 288.000000)" fill="#FFFFFF" fill-rule="nonzero">
            <path d="M6.9375,100.800923 L62.4375,100.800923 L62.4375,116.766187 L41.3359375,116.766187 L41.3359375,126 L106.664062,126 L106.664062,116.766187 L85.5625,116.766187 L85.5625,100.800923 L141.0625,100.800923 C144.878125,100.800923 148,97.6845114 148,93.8755634 L148,6.92536001 C148,3.116412 144.878125,0 141.0625,0 L6.9375,0 C3.121875,0 0,3.116412 0,6.92536001 L0,93.8755634 C3.85108612e-16,97.6845114 3.121875,100.800923 6.9375,100.800923 Z M9.25,9.23381335 L138.75,9.23381335 L138.75,91.56711 L9.25,91.56711 L9.25,9.23381335 Z" id="Shape"></path>
            <path d="M74.5415133,21 C38.5702372,21 25,50 25,50 C25,50 38.4895168,79 74.4584867,79 C110.427457,79 124,50 124,50 C124,50 110.512789,21 74.5415133,21 Z M74.4584867,69.7870701 C52.2373387,69.7870701 40.3645343,56.7461679 35.7150445,50.0138194 C40.4037413,43.2469224 52.3203653,30.2129299 74.5415133,30.2129299 C96.7649676,30.2129299 108.637772,43.2515289 113.284956,49.9861806 C108.619322,56.7070129 96.6796347,69.7870701 74.4584867,69.7870701 Z" id="Shape"></path>
            <path d="M74,35 C65.7154421,35 59,41.7154421 59,50 C59,58.2845579 65.7154421,65 74,65 C82.2845579,65 89,58.2845579 89,50 C89,41.7154421 82.2845579,35 74,35 Z M74,54.7587173 C71.370797,54.7587173 69.2412827,52.629203 69.2412827,50 C69.2412827,47.370797 71.373132,45.2412827 74,45.2412827 C76.629203,45.2412827 78.7587173,47.373132 78.7587173,50 C78.7587173,52.626868 76.629203,54.7587173 74,54.7587173 Z" id="Shape"></path>
        </g>
    </g>
</svg>