<?xml version="1.0" encoding="UTF-8"?>
<svg width="176px" height="157px" viewBox="0 0 176 157" version="1.1" xmlns="http://www.w3.org/2000/svg" xmlns:xlink="http://www.w3.org/1999/xlink">
    <!-- Generator: Sketch 48.2 (47327) - http://www.bohemiancoding.com/sketch -->
    <title>goat-marketing-brand-dollars</title>
    <desc>Created with Sketch.</desc>
    <defs></defs>
    <g id="Desktop-HD" stroke="none" stroke-width="1" fill="none" fill-rule="evenodd" transform="translate(-888.000000, -615.000000)">
        <g id="goat-marketing-brand-dollars" transform="translate(888.000000, 614.000000)" fill="#FFFFFF" fill-rule="nonzero">
            <path d="M103.252939,40.2818636 C99.271102,37.7461136 94.3467755,37.3765455 87.3219388,38.3791364 C81.3637959,39.2134091 78.3536735,39.2646364 76.0303265,37.7790455 C74.2403265,36.6374091 73.6302653,34.7054091 77.4769388,33.0588182 C80.6770204,31.6903182 83.7163673,31.4378409 85.2944898,31.3317273 L83.6031224,28.9094091 C81.3893673,29.0484545 78.6203469,29.4655909 75.5408163,30.6950455 L71.2009796,27.9287727 L68.0995306,29.2570227 L72.6183673,32.1367273 C68.6876735,34.5334318 68.5525102,37.5924318 72.2676735,39.9562045 C76.1545306,42.4407273 81.3601429,42.4004773 88.2498163,41.3612955 C93.2983469,40.6331364 96.765102,40.7685227 99.2236122,42.3382727 C101.769796,43.9629091 101.207224,46.1620227 97.656449,47.6842045 C94.854551,48.8807273 91.4060612,49.4478864 88.5347551,49.5357045 L90.3284082,51.9616818 C93.1924082,51.9250909 97.002551,51.1566818 99.9505714,49.9418636 L104.465755,52.8252273 L107.614694,51.4786818 L102.960694,48.5075 C107.34802,45.8217273 106.785449,42.5322045 103.252939,40.2818636 Z" id="Shape"></path>
            <path d="M2.86681633,49.0051364 C1.64304082,49.5100909 0.799183673,50.6444091 0.667673469,51.9653409 C0.536163265,53.2826136 1.14257143,54.5669545 2.2384898,55.3024318 L52.6653469,89.0246136 C53.268102,89.4234545 53.9585306,89.6283636 54.6526122,89.6283636 C55.175,89.6283636 55.6937347,89.5185909 56.1795918,89.2844091 L93.9230204,71.4243864 L93.9230204,70.84625 L38.0604082,34.4968409 L2.86681633,49.0051364 Z M40.3070408,59.0273864 C42.5390612,58.0394318 45.9656327,58.1309091 47.956551,59.2359545 C49.9511224,60.3483182 49.7575102,62.0461364 47.5291429,63.03775 C45.2971224,64.0293636 41.8742041,63.9342273 39.8759796,62.8255227 C37.8850612,61.7131591 38.0786735,60.019 40.3070408,59.0273864 Z" id="Shape"></path>
            <path d="M176,30.3437727 C176.010959,28.9679545 175.229204,27.7055682 173.994469,27.0981591 L121.646102,1.34181818 C120.725531,0.888090909 119.655184,0.855159091 118.705388,1.24302273 L87.1392857,14.2584091 L140.861204,49.2137045 L173.950633,33.5564545 C175.192673,32.9673409 175.989041,31.7195909 176,30.3437727 Z M136.371592,23.5964091 C134.139571,24.5843636 130.713,24.4855682 128.722082,23.3768636 C126.723857,22.2718182 126.917469,20.5703409 129.142184,19.5823864 C131.374204,18.5871136 134.800776,18.6785909 136.795347,19.7909545 C138.789918,20.8996591 138.599959,22.6011364 136.371592,23.5964091 Z" id="Shape"></path>
            <path d="M54.6599184,95.8963864 C53.9658367,95.8963864 53.2717551,95.6878182 52.6726531,95.2926364 L12.1309796,68.1824318 L2.87046939,71.9988636 C1.64669388,72.5038182 0.802836735,73.6417955 0.671326531,74.9627273 C0.539816327,76.28 1.14622449,77.5606818 2.24214286,78.2998182 L52.669,112.022 C53.2717551,112.420841 53.9621837,112.62575 54.6562653,112.62575 C55.1786531,112.62575 55.6973878,112.515977 56.1832449,112.281795 L93.9266735,94.4217727 L93.9266735,77.6924091 L56.1832449,95.5560909 C55.7010408,95.7829545 55.1786531,95.8963864 54.6599184,95.8963864 Z" id="Shape"></path>
            <path d="M173.994469,50.0955455 L163.331184,44.8484091 L141.295918,55.2768182 L141.295918,72.0061818 L173.94698,56.5575 C175.192673,55.9683864 175.989041,54.7206364 176,53.3448182 C176.010959,51.969 175.229204,50.7029545 173.994469,50.0955455 Z" id="Shape"></path>
            <path d="M54.6599184,118.597386 C53.9658367,118.597386 53.2717551,118.392477 52.6726531,117.997295 L12.1309796,90.8797727 L2.87046939,94.7035227 C1.64669388,95.2048182 0.802836735,96.3427955 0.671326531,97.6637273 C0.539816327,98.9773409 1.14622449,100.265341 2.24214286,101.000818 L52.669,134.723 C53.2717551,135.118182 53.9621837,135.32675 54.6562653,135.32675 C55.1786531,135.32675 55.6973878,135.213318 56.1832449,134.982795 L93.9266735,117.122773 L93.9266735,100.393409 L56.1832449,118.253432 C55.7010408,118.480295 55.1786531,118.597386 54.6599184,118.597386 Z" id="Shape"></path>
            <path d="M173.994469,72.7965455 L163.331184,67.5494091 L141.295918,77.9778182 L141.295918,94.7035227 L173.94698,79.2548409 C175.192673,78.6657273 175.989041,77.4179773 176,76.0421591 C176.010959,74.6663409 175.229204,73.4002955 173.994469,72.7965455 Z" id="Shape"></path>
            <path d="M54.6599184,141.294727 C53.9658367,141.294727 53.2717551,141.093477 52.6726531,140.694636 L12.1309796,113.580773 L2.87046939,117.400864 C1.64669388,117.905818 0.802836735,119.043795 0.671326531,120.364727 C0.539816327,121.678341 1.14622449,122.962682 2.24214286,123.698159 L52.669,157.424 C53.2717551,157.822841 53.9621837,158.024091 54.6562653,158.024091 C55.1786531,158.024091 55.6973878,157.914318 56.1832449,157.680136 L93.9266735,139.820114 L93.9266735,123.09075 L56.1832449,140.950773 C55.7010408,141.184955 55.1786531,141.294727 54.6599184,141.294727 Z" id="Shape"></path>
            <path d="M173.994469,95.4975455 L163.331184,90.2504091 L141.295918,100.678818 L141.295918,117.404523 L173.94698,101.952182 C175.192673,101.363068 175.989041,100.115318 176,98.7395 C176.010959,97.3636818 175.229204,96.1012955 173.994469,95.4975455 Z" id="Shape"></path>
        </g>
    </g>
</svg>