<?xml version="1.0" encoding="UTF-8"?>
<svg width="75px" height="74px" viewBox="0 0 75 74" version="1.1" xmlns="http://www.w3.org/2000/svg" xmlns:xlink="http://www.w3.org/1999/xlink">
    <!-- Generator: Sketch 49 (51002) - http://www.bohemiancoding.com/sketch -->
    <title>goat-marketing-production-icon</title>
    <desc>Created with Sketch.</desc>
    <defs></defs>
    <g id="Icons" stroke="none" stroke-width="1" fill="none" fill-rule="evenodd">
        <g id="Services" transform="translate(-368.000000, -631.000000)" fill="#FFFFFF" fill-rule="nonzero">
            <g id="goat-marketing-production-icon" transform="translate(368.000000, 631.000000)">
                <path d="M69.9734043,66.143617 C69.9734043,68.0585106 68.6968085,68.537234 67.5797872,68.537234 L10.1329787,68.537234 C8.21808511,68.537234 7.7393617,67.1808511 7.7393617,66.143617 L7.7393617,44.6010638 L69.9734043,44.6010638 L69.9734043,66.143617 Z M65.8244681,32.6329787 L62.2340426,42.2074468 L52.6595745,42.2074468 L56.25,32.6329787 L65.8244681,32.6329787 Z M47.7925532,32.6329787 L44.2021277,42.2074468 L34.6276596,42.2074468 L38.2180851,32.6329787 L47.7925532,32.6329787 Z M29.8404255,32.6329787 L26.25,42.2074468 L16.6755319,42.2074468 L20.2659574,32.6329787 L29.8404255,32.6329787 Z M19.9468085,28.2446809 L13.4042553,20.3457447 L22.5,17.2340426 L29.0425532,25.1329787 L19.9468085,28.2446809 Z M30.3989362,14.4414894 L39.4946809,11.3297872 L46.037234,19.2287234 L36.8617021,22.3404255 L30.3989362,14.4414894 Z M47.393617,8.61702128 L56.4893617,5.50531915 L63.0319149,13.4042553 L53.9361702,16.5159574 L47.393617,8.61702128 Z M11.6489362,28.0851064 C13.4840426,28.0851064 15,29.6010638 15,31.4361702 C15,33.2712766 13.4840426,34.787234 11.6489362,34.787234 C9.81382979,34.787234 8.29787234,33.2712766 8.29787234,31.4361702 C8.29787234,29.6010638 9.73404255,28.0851064 11.6489362,28.0851064 Z M74.7606383,66.143617 L74.7606383,41.0106383 L74.7606383,39.8138298 L74.7606383,33.8297872 C74.7606383,32.393617 73.8031915,30.2393617 71.1702128,30.2393617 L21.3031915,30.2393617 L68.7765957,13.8829787 C71.25,13.0053191 71.4893617,10.6914894 71.0106383,9.33510638 L68.6968085,2.55319149 C67.8191489,0.079787234 65.5053191,-0.159574468 64.1489362,0.319148936 L2.95212766,21.3829787 C0.478723404,22.2606383 0.239361702,24.5744681 0.718085106,25.9308511 L3.11170213,32.712766 C3.11170213,32.712766 3.11170213,32.712766 3.11170213,32.7925532 C3.03191489,33.1117021 2.87234043,33.4308511 2.87234043,33.8297872 L2.87234043,39.8138298 L2.87234043,41.0106383 L2.87234043,66.143617 C2.87234043,69.0159574 4.78723404,73.3244681 10.0531915,73.3244681 L67.5,73.3244681 C70.4521277,73.4042553 74.7606383,71.4893617 74.7606383,66.143617 Z" id="Shape"></path>
            </g>
        </g>
    </g>
</svg>