<?xml version="1.0" encoding="UTF-8"?>
<svg width="142px" height="129px" viewBox="0 0 142 129" version="1.1" xmlns="http://www.w3.org/2000/svg" xmlns:xlink="http://www.w3.org/1999/xlink">
    <!-- Generator: Sketch 48.2 (47327) - http://www.bohemiancoding.com/sketch -->
    <title>goat-marketing-happy-customers</title>
    <desc>Created with Sketch.</desc>
    <defs></defs>
    <g id="Desktop-HD" stroke="none" stroke-width="1" fill="none" fill-rule="evenodd" transform="translate(-1177.000000, -323.000000)">
        <g id="goat-marketing-happy-customers" transform="translate(1177.000000, 323.000000)" fill="#FFFFFF" fill-rule="nonzero">
            <path d="M137.730793,75.9897439 C133.768869,73.8368474 128.826053,75.31249 126.686176,79.2879151 C115.58676,99.8505535 94.2510028,112.627526 71.0000416,112.627526 C47.7463404,112.627526 26.4105833,99.8505535 15.3139073,79.2906681 C13.1712898,75.3152431 8.22025434,73.8423536 4.26654977,75.998003 C0.310105268,78.1536525 -1.15849186,83.1256869 0.986865511,87.0928528 C14.9357983,112.941375 41.7623551,129 71.0000416,129 C100.237728,129 127.067025,112.938622 141.013218,87.0900997 C143.158575,83.1146747 141.689978,78.1426403 137.730793,75.9897439 Z" id="Shape"></path>
            <path d="M27.9986284,27.6570525 C34.3462217,27.6570525 40.0272353,30.5112604 43.878584,35 C47.06061,31.2884235 49,26.4622679 49,21.1714737 C49,9.48083761 39.5965646,0 27.9986284,0 C16.4034354,0 7.00274313,9.48083761 7,21.1714737 C7,26.4650336 8.93938998,31.2911893 12.121416,35 C15.9727647,30.5112604 21.6510352,27.6570525 27.9986284,27.6570525 Z" id="Shape"></path>
            <path d="M114.002744,27.6548673 C120.351581,27.6548673 126.030964,30.5088496 129.880324,34.9972345 C133.062974,31.2859513 135,26.460177 135,21.1698009 C135,9.4800885 125.600209,0 114.002744,0 C102.405278,0 93,9.4800885 93,21.1698009 C93,26.4629425 94.9370264,31.2887168 98.1224196,35 C101.971779,30.5088496 107.653906,27.6548673 114.002744,27.6548673 Z" id="Shape"></path>
        </g>
    </g>
</svg>