<?xml version="1.0" encoding="UTF-8"?>
<svg width="76px" height="82px" viewBox="0 0 76 82" version="1.1" xmlns="http://www.w3.org/2000/svg" xmlns:xlink="http://www.w3.org/1999/xlink">
    <!-- Generator: Sketch 49 (51002) - http://www.bohemiancoding.com/sketch -->
    <title>goat-marketing-networking-icon</title>
    <desc>Created with Sketch.</desc>
    <defs>
        <path d="M41.5068493,18.2876712 C41.4041096,18.5958904 41.4041096,19.0068493 41.609589,19.3150685 C41.7123288,19.4178082 48.390411,28.6643836 48.1849315,39.2465753 C47.6712329,57.0205479 52.8082192,66.4726027 63.1849315,67.7054795 L65.0342466,76.5410959 L59.2808219,77.7739726 C58.7671233,77.8767123 58.3561644,78.390411 58.4589041,79.0068493 C58.5616438,79.5205479 58.9726027,79.8287671 59.4863014,79.8287671 C59.5890411,79.8287671 59.5890411,79.8287671 59.6917808,79.8287671 L73.1506849,77.0547945 C73.6643836,76.9520548 74.0753425,76.4383562 73.9726027,75.8219178 C73.869863,75.3082192 73.3561644,74.8972603 72.739726,75 L67.0890411,76.0273973 L65.239726,67.2945205 C74.4863014,62.0547945 75.4109589,51.2671233 67.8082192,35.1369863 C63.390411,25.5821918 65.8561644,14.3835616 65.8561644,14.2808219 C65.9589041,13.9726027 65.8561644,13.5616438 65.5479452,13.3561644 C65.3424658,13.1506849 64.9315068,13.0479452 64.6232877,13.0479452 L42.2260274,17.6712329 C41.9178082,17.6712329 41.609589,17.9794521 41.5068493,18.2876712 Z M65.9589041,35.9589041 C73.1506849,51.369863 72.4315068,61.0273973 63.9041096,65.6506849 C54.2465753,64.8287671 49.7260274,56.1986301 50.239726,39.2465753 C50.3424658,35.4452055 49.6232877,31.7465753 48.5958904,28.5616438 L48.6986301,28.4589041 C49.5205479,27.4315068 50.3424658,26.609589 51.9863014,26.3013699 C53.630137,25.9931507 54.6575342,26.4041096 55.890411,27.0205479 C57.2260274,27.6369863 58.7671233,28.3561644 61.0273973,27.9452055 C62.0547945,27.739726 62.8767123,27.3287671 63.4931507,26.9178082 C63.8013699,29.7945205 64.6232877,32.9794521 65.9589041,35.9589041 Z M63.5958904,15.3082192 C63.2876712,17.1575342 62.9794521,20.4452055 63.1849315,24.3493151 C62.4657534,25.0684932 61.8493151,25.5821918 60.5136986,25.890411 C58.869863,26.1986301 57.8424658,25.7876712 56.609589,25.1712329 C55.2739726,24.5547945 53.7328767,23.8356164 51.4726027,24.2465753 C49.6232877,24.6575342 48.5958904,25.4794521 47.6712329,26.4041096 C46.4383562,23.2191781 45,20.7534247 44.0753425,19.3150685 L63.5958904,15.3082192 Z" id="path-1"></path>
        <path d="M1.74657534,65.5479452 C1.23287671,65.3424658 0.616438356,65.6506849 0.410958904,66.1643836 C0.205479452,66.6780822 0.51369863,67.2945205 1.02739726,67.5 L13.9726027,72.0205479 C14.0753425,72.0205479 14.1780822,72.1232877 14.2808219,72.1232877 C14.6917808,72.1232877 15.1027397,71.8150685 15.2054795,71.4041096 C15.4109589,70.890411 15.1027397,70.2739726 14.5890411,70.0684932 L9.04109589,68.1164384 L12.1232877,59.3835616 L17.1575342,61.130137 C17.4657534,61.2328767 17.8767123,61.3356164 18.1849315,61.3356164 C19.3150685,61.3356164 20.239726,60.7191781 20.6506849,59.7945205 L38.630137,14.0753425 C38.7328767,13.7671233 38.7328767,13.3561644 38.630137,13.0479452 C38.4246575,12.6369863 38.1164384,12.4315068 37.8082192,12.2260274 L19.9315068,5.95890411 C19.5205479,5.85616438 19.109589,5.85616438 18.8013699,6.06164384 C18.4931507,6.26712329 18.1849315,6.47260274 18.0821918,6.88356164 L3.49315068,53.7328767 C3.08219178,55.0684932 3.90410959,56.5068493 5.34246575,57.0205479 L10.3767123,58.7671233 L7.29452055,67.5 L1.74657534,65.5479452 Z M19.9315068,8.21917808 L36.5753425,14.0753425 L35.0342466,17.9794521 C34.2123288,17.0547945 33.0821918,16.0273973 31.2328767,15.4109589 C28.6643836,14.4863014 26.9178082,15 25.3767123,15.3082192 C23.9383562,15.7191781 22.7054795,16.0273973 20.7534247,15.3082192 C19.5205479,14.8972603 18.6986301,14.2808219 18.1849315,13.6643836 L19.9315068,8.21917808 Z M5.44520548,54.3493151 L17.5684932,15.8219178 C18.1849315,16.3356164 19.0068493,16.8493151 20.1369863,17.260274 C22.7054795,18.1849315 24.4520548,17.6712329 25.9931507,17.3630137 C27.4315068,16.9520548 28.6643836,16.6438356 30.6164384,17.3630137 C32.5684932,18.0821918 33.2876712,19.0068493 34.2123288,20.239726 L18.9041096,59.0753425 C18.8013699,59.2808219 18.390411,59.3835616 17.9794521,59.2808219 L5.95890411,55.0684932 C5.54794521,54.9657534 5.34246575,54.5547945 5.44520548,54.3493151 Z" id="path-2"></path>
    </defs>
    <g id="Icons" stroke="none" stroke-width="1" fill="none" fill-rule="evenodd">
        <g id="Services" transform="translate(-344.000000, -310.000000)" fill-rule="nonzero" stroke="#FFFFFF">
            <g id="goat-marketing-networking-icon" transform="translate(345.000000, 311.000000)">
                <g id="Shape">
                    <use fill="#FFFFFF" fill-rule="evenodd" xlink:href="#path-1"></use>
                    <use xlink:href="#path-1"></use>
                    <use xlink:href="#path-1"></use>
                </g>
                <path d="M39.760274,0.308219178 C39.1438356,0.308219178 38.7328767,0.719178082 38.7328767,1.33561644 L38.7328767,7.39726027 C38.7328767,8.01369863 39.1438356,8.42465753 39.760274,8.42465753 C40.3767123,8.42465753 40.7876712,8.01369863 40.7876712,7.39726027 L40.7876712,1.33561644 C40.7876712,0.821917808 40.2739726,0.308219178 39.760274,0.308219178 Z" id="Shape" fill="#FFFFFF"></path>
                <path d="M43.9726027,9.96575342 C44.1780822,9.96575342 44.2808219,9.96575342 44.4863014,9.8630137 L49.7260274,6.88356164 C50.239726,6.57534247 50.3424658,5.95890411 50.1369863,5.44520548 C49.9315068,4.93150685 49.2123288,4.82876712 48.6986301,5.03424658 L43.4589041,8.01369863 C42.9452055,8.32191781 42.8424658,8.93835616 43.0479452,9.45205479 C43.2534247,9.76027397 43.6643836,9.96575342 43.9726027,9.96575342 Z" id="Shape" fill="#FFFFFF"></path>
                <g id="Shape">
                    <use fill="#FFFFFF" fill-rule="evenodd" xlink:href="#path-2"></use>
                    <use xlink:href="#path-2"></use>
                    <use xlink:href="#path-2"></use>
                </g>
            </g>
        </g>
    </g>
</svg>