<?xml version="1.0" encoding="UTF-8"?>
<svg width="145px" height="80px" viewBox="0 0 145 80" version="1.1" xmlns="http://www.w3.org/2000/svg" xmlns:xlink="http://www.w3.org/1999/xlink">
    <!-- Generator: Sketch 48.2 (47327) - http://www.bohemiancoding.com/sketch -->
    <title>goat-marketing-eyeballs</title>
    <desc>Created with Sketch.</desc>
    <defs></defs>
    <g id="Desktop-HD" stroke="none" stroke-width="1" fill="none" fill-rule="evenodd" transform="translate(-1132.000000, -537.000000)">
        <path d="M1237.50242,537.7 C1224.16102,537.7 1211.69734,544.546247 1204.5,555.430024 C1197.30266,544.546247 1184.83898,537.7 1171.49758,537.7 C1149.73002,537.7 1132,555.430024 1132,577.197579 C1132,598.965133 1149.73002,616.695157 1171.49758,616.695157 C1184.83898,616.695157 1197.30266,609.84891 1204.5,598.965133 C1211.69734,609.84891 1224.16102,616.695157 1237.50242,616.695157 C1259.26998,616.695157 1277,598.965133 1277,577.197579 C1277,555.430024 1259.44552,537.7 1237.50242,537.7 Z M1250.66828,607.040194 C1253.30145,603.880387 1255.0569,600.018402 1255.0569,595.454237 C1255.0569,585.799274 1247.15738,578.075303 1237.67797,578.075303 C1228.023,578.075303 1220.29903,585.974818 1220.29903,595.454237 C1220.29903,599.842857 1221.87893,603.880387 1224.68765,606.864649 C1217.49031,603.704843 1211.34625,597.73632 1208.0109,590.187893 L1204.85109,582.815012 L1201.69128,590.187893 C1198.70702,597.209685 1193.26513,602.651574 1186.76998,605.986925 C1189.05206,603.002663 1190.45642,599.316223 1190.45642,595.278692 C1190.45642,585.623729 1182.5569,577.899758 1173.07748,577.899758 C1163.59806,577.899758 1155.69855,585.799274 1155.69855,595.278692 C1155.69855,600.018402 1157.62954,604.231477 1160.6138,607.391283 C1148.32567,602.651574 1139.54843,590.890073 1139.54843,577.022034 C1139.54843,559.116465 1154.11864,544.546247 1172.02421,544.546247 C1184.83898,544.546247 1196.60048,552.094673 1201.86683,564.031719 L1205.02663,571.4046 L1208.18644,564.031719 C1213.45278,552.270218 1225.03874,544.546247 1238.02906,544.546247 C1255.93462,544.546247 1270.50484,559.116465 1270.50484,577.022034 C1270.15375,590.538983 1262.07869,601.949395 1250.66828,607.040194 Z" id="goat-marketing-eyeballs" fill="#FFFFFF" fill-rule="nonzero"></path>
    </g>
</svg>