<?xml version="1.0" encoding="UTF-8"?>
<svg width="223px" height="223px" viewBox="0 0 223 223" version="1.1" xmlns="http://www.w3.org/2000/svg" xmlns:xlink="http://www.w3.org/1999/xlink">
    <!-- Generator: Sketch 48.2 (47327) - http://www.bohemiancoding.com/sketch -->
    <title>goat-marketing-global-reach</title>
    <desc>Created with Sketch.</desc>
    <defs></defs>
    <g id="Desktop-HD" stroke="none" stroke-width="1" fill="none" fill-rule="evenodd" transform="translate(-872.000000, -367.000000)">
        <g id="goat-marketing-global-reach" transform="translate(872.000000, 366.637800)" fill="#FFFFFF">
            <path d="M111.205915,63.0644958 C84.3769946,63.0644958 62.5533273,84.8886567 62.5533273,111.717084 C62.5533273,138.546206 84.3769946,160.369672 111.205915,160.369672 C138.034836,160.369672 159.858503,138.546206 159.858503,111.717084 C159.858503,84.8886567 138.034836,63.0644958 111.205915,63.0644958 Z M111.205915,70.0148655 C134.278578,70.0148655 152.908133,88.6446365 152.908133,111.717084 C152.908133,134.790226 134.278578,153.419302 111.205915,153.419302 C88.1332524,153.419302 69.503697,134.790226 69.503697,111.717084 C69.503697,88.6446365 88.1332524,70.0148655 111.205915,70.0148655 Z" id="Shape" fill-rule="nonzero"></path>
            <polygon id="Shape" points="107.73073 66.5396807 107.73073 156.894487 114.6811 156.894487 114.6811 66.5396807"></polygon>
            <path d="M111.205915,63.0644958 C102.744417,63.0644958 95.6905493,69.3080129 90.9385259,78.1328973 C86.1865095,86.9577818 83.4044364,98.7365733 83.4044364,111.717084 C83.4044364,124.698289 86.1865095,136.490286 90.9385259,145.315171 C95.6905493,154.14075 102.744417,160.369672 111.205915,160.369672 C119.667413,160.369672 126.721281,154.14075 131.473304,145.315171 C136.225321,136.490286 139.007394,124.698289 139.007394,111.717084 C139.007394,98.7365733 136.225321,86.9577818 131.473304,78.1328973 C126.721281,69.3080129 119.667413,63.0644958 111.205915,63.0644958 Z M111.205915,70.0148655 C116.179461,70.0148655 121.298637,73.9056825 125.351002,81.4315428 C129.403373,88.9574031 132.057024,99.7478521 132.057024,111.717084 C132.057024,123.68701 129.403373,134.490665 125.351002,142.016525 C121.298637,149.542386 116.179461,153.419302 111.205915,153.419302 C106.23237,153.419302 101.113193,149.542386 97.0608286,142.016525 C93.0084572,134.490665 90.3548061,123.68701 90.3548061,111.717084 C90.3548061,99.7478521 93.0084572,88.9574031 97.0608286,81.4315428 C101.113193,73.9056825 106.23237,70.0148655 111.205915,70.0148655 Z" id="Shape" fill-rule="nonzero"></path>
            <polygon id="Shape" points="69.503697 92.6035671 69.503697 99.5539368 152.908133 99.5539368 152.908133 92.6035671"></polygon>
            <polygon id="Shape" points="69.503697 123.880231 69.503697 130.8306 152.908133 130.8306 152.908133 123.880231"></polygon>
            <path d="M3.47518485,149.944117 C1.55597265,149.944309 0.0001916622,151.50009 0,153.419302 L0,219.447814 C0.0001916622,221.367026 1.55597265,222.922807 3.47518485,222.922999 L24.3262939,222.922999 C26.2455061,222.922807 27.8012871,221.367026 27.8014788,219.447814 L27.8014788,195.12152 C27.8191925,193.868251 27.1607274,192.702527 26.0782203,192.070723 C24.9957131,191.438919 23.6568748,191.438919 22.5743676,192.070723 C21.4918604,192.702527 20.8333954,193.868251 20.8511091,195.12152 L20.8511091,215.972629 L6.9503697,215.972629 L6.9503697,156.894487 L20.8511091,156.894487 L20.8511091,170.795226 C20.8333954,172.048496 21.4918604,173.214219 22.5743676,173.846023 C23.6568748,174.477827 24.9957131,174.477827 26.0782203,173.846023 C27.1607274,173.214219 27.8191925,172.048496 27.8014788,170.795226 L27.8014788,153.419302 C27.8012871,151.50009 26.2455061,149.944309 24.3262939,149.944117 L3.47518485,149.944117 Z" id="Shape" fill-rule="nonzero"></path>
            <path d="M50.186556,154.722496 L25.1136402,157.858503 L25.9824364,164.75466 L51.0417775,161.618653 C57.6912677,160.785304 64.4307785,162.139931 70.2503196,165.474023 L92.9883428,178.505966 L120.043199,178.505966 C123.90317,178.505966 126.987133,181.541193 127.034298,185.42923 L127.061404,188.280271 C127.107972,192.097414 124.117547,195.12152 120.328234,195.12152 L80.5265107,195.12152 L80.5265107,202.07189 L120.328234,202.07189 C127.915063,202.07189 134.103853,195.790841 134.011774,188.198257 L133.984668,185.34791 C133.892436,177.744901 127.640725,171.555597 120.043199,171.555597 L94.8481089,171.555597 L73.7119304,159.433457 C66.5865476,155.348725 58.3315768,153.701487 50.186556,154.722496 Z" id="Shape"></path>
            <path d="M175.306784,168.270157 C172.167705,167.050367 168.595576,166.972523 165.274905,168.339661 L128.799038,181.452923 L131.147506,187.996001 L167.75912,174.828526 C167.80487,174.806353 167.850128,174.78318 167.894861,174.759022 C171.18511,173.419686 174.834527,174.828526 176.46065,178.112575 C176.4782,178.145298 176.496273,178.177737 176.514862,178.209881 C178.296402,181.842839 176.751592,186.172224 173.175432,187.793745 L122.445879,210.789738 C109.598434,216.614843 95.2591954,216.940816 80.8522537,214.686116 L25.3987144,206.008579 L24.3262939,212.87763 L79.7799298,221.552386 C94.9836341,223.931498 110.786683,223.697965 125.31028,217.113185 L176.039832,194.117192 C183.183137,190.877624 186.210427,182.218159 182.745855,175.153108 L182.868042,175.424172 C182.828819,175.308341 182.783509,175.19466 182.732302,175.083604 C181.153449,171.850987 178.445884,169.488557 175.306805,168.268767 L175.306784,168.270157 Z" id="Shape"></path>
            <path d="M27.8012703,182.964628 C27.8012703,184.88392 26.245377,186.439813 24.3260854,186.439813 C22.4067938,186.439813 20.8509006,184.88392 20.8509006,182.964628 C20.8509006,181.045337 22.4067938,179.489444 24.3260854,179.489444 C26.245377,179.489444 27.8012703,181.045337 27.8012703,182.964628 Z" id="Shape" fill-rule="nonzero"></path>
            <path d="M198.085536,0.517423904 C196.166324,0.517615566 194.610543,2.07339655 194.610352,3.99260875 L194.610352,28.3189027 C194.592638,29.5721721 195.251103,30.7378959 196.33361,31.3696999 C197.416117,32.0015039 198.754956,32.0015039 199.837463,31.3696999 C200.91997,30.7378959 201.578435,29.5721721 201.560721,28.3189027 L201.560721,7.4677936 L215.461461,7.4677936 L215.461461,66.545936 L201.560721,66.545936 L201.560721,52.6451966 C201.578435,51.3919272 200.91997,50.2262034 199.837463,49.5943994 C198.754956,48.9625954 197.416117,48.9625954 196.33361,49.5943994 C195.251103,50.2262034 194.592638,51.3919272 194.610352,52.6451966 L194.610352,70.0211209 C194.610543,71.9403331 196.166324,73.4961141 198.085536,73.4963057 L218.936645,73.4963057 C220.855858,73.4961141 222.411639,71.9403331 222.41183,70.0211209 L222.41183,3.99260875 C222.411639,2.07339655 220.855858,0.517615566 218.936645,0.517423904 L198.085536,0.517423904 Z" id="Shape" fill-rule="nonzero"></path>
            <path d="M102.083555,21.368533 C94.496726,21.368533 88.3079361,27.6641779 88.4000146,35.2560667 L88.427121,38.1064133 C88.5193524,45.7094227 94.771064,51.8987269 102.36859,51.8987269 L127.56368,51.8987269 L148.699858,64.007661 C155.825238,68.0916982 164.080213,69.7528366 172.225233,68.7318273 L197.29815,65.5958205 L196.429354,58.6996637 L171.370011,61.8356705 C164.720523,62.6690198 157.981007,61.3143928 152.161469,57.9803004 L129.423446,44.9483572 L102.36859,44.9483572 C98.5086184,44.9483572 95.4246559,41.8999251 95.3774907,38.0118883 L95.3503843,35.1747474 C95.3038168,31.3569093 98.2942412,28.3189027 102.083555,28.3189027 L141.885278,28.3189027 L141.885278,21.368533 L102.083555,21.368533 Z" id="Shape"></path>
            <path d="M119.608801,0.762076918 C111.940646,1.34590797 104.363353,3.04874855 97.1015508,6.34113867 L46.3719978,29.3371319 C39.2286921,32.5766992 36.2014009,41.2361648 39.6659767,48.3012156 L39.5438031,48.0162504 C39.5825616,48.1367912 39.6278784,48.2551239 39.6795508,48.3707193 C42.8372455,54.8359532 50.4955771,57.8350377 57.1369243,55.1313439 L93.6127919,42.0173863 L91.2643245,35.4743083 L54.65271,48.6424787 C54.6069578,48.6646509 54.5616977,48.6878244 54.5169623,48.7119824 C51.2267129,50.0513187 47.5772983,48.6424787 45.9511745,45.358429 C45.9336015,45.325706 45.915505,45.2932668 45.8968921,45.2611239 C44.1153573,41.6281656 45.6601347,37.2987803 49.2363279,35.6772591 L99.9658746,12.6812659 C112.81332,6.85616107 127.152558,6.53018873 141.5595,8.78488866 L197.013129,17.4596451 L198.08555,10.5905947 L142.631921,1.91583829 C135.030073,0.726630032 127.276977,0.192146602 119.608822,0.775977657 L119.608801,0.762076918 Z" id="Shape"></path>
            <path d="M201.560513,40.488305 C201.560513,42.4075966 200.004619,43.9634898 198.085328,43.9634898 C196.166036,43.9634898 194.610143,42.4075966 194.610143,40.488305 C194.610143,38.5690134 196.166036,37.0131201 198.085328,37.0131201 C200.004619,37.0131201 201.560513,38.5690134 201.560513,40.488305 Z" id="Shape" fill-rule="nonzero"></path>
        </g>
    </g>
</svg>